<?xml version="1.0" encoding="UTF-8"?>
<svg version="1.1" xmlns="http://www.w3.org/2000/svg" width="500" height="69">
<path d="M0 0 C4.62 0 9.24 0 14 0 C17.06908387 7.45151444 19.738371 14.96918273 22.25 22.625 C22.61351562 23.72457031 22.97703125 24.82414062 23.3515625 25.95703125 C24.23715622 28.63711752 25.11991207 31.31810177 26 34 C28.66548786 31.33451214 29.43365574 28.30217676 30.6015625 24.8046875 C30.8428891 24.09724396 31.0842157 23.38980042 31.33285522 22.66091919 C32.1024309 20.40077988 32.86379695 18.13797123 33.625 15.875 C34.14529507 14.34226509 34.66612192 12.8097106 35.1875 11.27734375 C36.4645137 7.52029482 37.7341715 3.76083146 39 0 C43.62 0 48.24 0 53 0 C53 16.83 53 33.66 53 51 C49.7 51 46.4 51 43 51 C42.67 41.1 42.34 31.2 42 21 C41.28972656 23.08183594 40.57945312 25.16367187 39.84765625 27.30859375 C39.15996415 29.31770604 38.47126723 31.3264712 37.7824707 33.33520508 C37.30322682 34.73458422 36.8250332 36.13432349 36.34790039 37.53442383 C35.66306015 39.54343077 34.97448943 41.5511247 34.28515625 43.55859375 C33.87144775 44.76829834 33.45773926 45.97800293 33.03149414 47.22436523 C32 50 32 50 31 51 C27.7 51 24.4 51 21 51 C17.7 41.43 14.4 31.86 11 22 C10.67 31.57 10.34 41.14 10 51 C6.7 51 3.4 51 0 51 C0 34.17 0 17.34 0 0 Z " fill="#2963E4" transform="translate(302,7)"/>
<path d="M0 0 C4.269375 -0.0825 8.53875 -0.165 12.9375 -0.25 C14.26515381 -0.28641602 15.59280762 -0.32283203 16.96069336 -0.36035156 C25.73460483 -0.44197547 31.98192101 0.7680669 38.875 6.3125 C44.39426265 13.29274394 45.76716665 21.34197635 45 30 C43.65218322 36.58051722 41.81747694 43.3132842 36.08862305 47.34521484 C28.54826485 51.56832177 21.8627565 51.59436096 13.375 51.3125 C6.754375 51.1578125 6.754375 51.1578125 0 51 C0 34.17 0 17.34 0 0 Z M11 9 C11 19.89 11 30.78 11 42 C21.17770141 42.73317895 21.17770141 42.73317895 29 39 C32.66399888 34.43347198 33.54736665 31.32609808 33.5 25.5 C33.5103125 24.2315625 33.520625 22.963125 33.53125 21.65625 C32.91773716 17.43383811 31.67908211 15.28466125 29 12 C22.61333543 8.0897972 19.24669723 9 11 9 Z " fill="#2A63E0" transform="translate(173,7)"/>
<path d="M0 0 C4.269375 -0.0825 8.53875 -0.165 12.9375 -0.25 C14.26515381 -0.28641602 15.59280762 -0.32283203 16.96069336 -0.36035156 C24.93541169 -0.43454055 31.6203855 0.22677577 37.83911133 5.58447266 C43.21430863 10.97590406 45.09393154 18.1679585 45.3125 25.625 C44.98906556 33.29309146 43.12583571 40.12610918 38 46 C30.33895192 51.66921363 22.56455538 51.61766626 13.375 51.3125 C6.754375 51.1578125 6.754375 51.1578125 0 51 C0 34.17 0 17.34 0 0 Z M11 9 C11 19.89 11 30.78 11 42 C21.17770141 42.73317895 21.17770141 42.73317895 29 39 C32.66399888 34.43347198 33.54736665 31.32609808 33.5 25.5 C33.5103125 24.2315625 33.520625 22.963125 33.53125 21.65625 C32.91773716 17.43383811 31.67908211 15.28466125 29 12 C22.61333543 8.0897972 19.24669723 9 11 9 Z " fill="#2563E9" transform="translate(36,7)"/>
<path d="M0 0 C4.58686745 4.46786853 6.16287349 9.50707526 6.4375 15.8125 C6.21360483 21.21397107 5.2825198 26.75308007 1.703125 30.98046875 C-3.78951322 35.80776162 -9.06600343 36.83458214 -16.1484375 36.69140625 C-21.63235426 36.06928124 -25.40363752 33.86849768 -29.3125 30.0625 C-33.10097498 23.79694522 -33.83579044 17.17677072 -32.5078125 10.078125 C-30.90123291 4.16749884 -28.27683084 0.45418691 -22.9375 -2.625 C-15.24366608 -5.83671175 -6.67302489 -5.14174128 0 0 Z " fill="#2662E7" transform="translate(256.9375,22.625)"/>
<path d="M0 0 C3.3 0 6.6 0 10 0 C10 9.24 10 18.48 10 28 C13.56563635 24.43436365 15.3041052 22.66296819 17.625 18.6875 C19.61177083 15.90079249 20.41012446 15.10673162 23.828125 14.48828125 C26.59480995 14.49892235 29.25700472 14.64858424 32 15 C31.00491271 20.06440576 27.66607113 23.38240652 24.41796875 27.22265625 C21.75833942 30.20050984 21.75833942 30.20050984 21.20141602 33.9387207 C22.10734313 36.27707063 23.24879212 38.04517924 24.72265625 40.07421875 C25.26083984 40.82380859 25.79902344 41.57339844 26.35351562 42.34570312 C26.91748047 43.11849609 27.48144531 43.89128906 28.0625 44.6875 C29.18033652 46.23166237 30.29632889 47.77716202 31.41015625 49.32421875 C31.90652588 50.00572998 32.40289551 50.68724121 32.91430664 51.3894043 C34 53 34 53 34 54 C29.71526428 54.94219319 26.25693013 55.16320249 22 54 C17.42684204 50.18700252 14.20972276 44.95358788 11 40 C10.67 44.62 10.34 49.24 10 54 C6.7 54 3.4 54 0 54 C0 36.18 0 18.36 0 0 Z " fill="#3064D4" transform="translate(437,4)"/>
<path d="M0 0 C4.90630033 4.32221696 5.95119783 8.92022117 6.70703125 15.1640625 C6.625 17.3125 6.625 17.3125 4.625 21.3125 C-2.965 21.3125 -10.555 21.3125 -18.375 21.3125 C-18.045 23.2925 -17.715 25.2725 -17.375 27.3125 C-14.69856043 28.20464652 -13.12115622 28.44790211 -10.375 28.4375 C-9.3540625 28.44136719 -9.3540625 28.44136719 -8.3125 28.4453125 C-6.15625219 28.37881126 -6.15625219 28.37881126 -3.375 27.3125 C-3.045 26.3225 -2.715 25.3325 -2.375 24.3125 C0.5969385 25.43701727 2.95940687 26.53543791 5.625 28.3125 C4.27344718 32.73576378 2.42609562 34.71662982 -1.375 37.3125 C-7.56055992 39.37435331 -14.91239529 39.40979467 -20.875 36.625 C-25.41556539 33.9308056 -27.75409942 30.95788654 -29.625 26 C-31.12368103 18.63148492 -30.89071322 12.05718388 -27.375 5.3125 C-23.92491435 1.03183817 -19.88644913 -1.48840007 -14.484375 -2.50390625 C-9.11447773 -2.9712862 -4.83857289 -2.41928645 0 0 Z M-16.6875 8.125 C-18.55131174 10.29297605 -18.55131174 10.29297605 -19.375 13.3125 C-14.425 13.3125 -9.475 13.3125 -4.375 13.3125 C-4.705 11.6625 -5.035 10.0125 -5.375 8.3125 C-9.4799773 5.57584847 -12.65371887 4.96338777 -16.6875 8.125 Z " fill="#2762E4" transform="translate(117.375,20.6875)"/>
<path d="M0 0 C2.16971057 1.75026772 3.88206733 3.37350967 5.13671875 5.8828125 C5.28938487 7.62149994 5.38604471 9.36528751 5.453125 11.109375 C5.49501953 12.140625 5.53691406 13.171875 5.58007812 14.234375 C5.61939453 15.31460938 5.65871094 16.39484375 5.69921875 17.5078125 C5.74240234 18.59578125 5.78558594 19.68375 5.83007812 20.8046875 C5.93636405 23.4972642 6.03839932 26.18993503 6.13671875 28.8828125 C7.45671875 29.2128125 8.77671875 29.5428125 10.13671875 29.8828125 C10.13671875 32.5228125 10.13671875 35.1628125 10.13671875 37.8828125 C2.92449464 39.22746445 2.92449464 39.22746445 -0.86328125 37.5703125 C-1.52328125 37.0134375 -2.18328125 36.4565625 -2.86328125 35.8828125 C-2.86328125 35.2228125 -2.86328125 34.5628125 -2.86328125 33.8828125 C-3.52328125 33.8828125 -4.18328125 33.8828125 -4.86328125 33.8828125 C-5.19328125 34.8728125 -5.52328125 35.8628125 -5.86328125 36.8828125 C-10.16342682 39.74638383 -14.89272397 39.40645306 -19.86328125 38.8828125 C-22.85717081 37.63535852 -24.28270473 36.83528857 -25.9609375 34.08203125 C-26.98613225 31.58339643 -27.23015745 29.64148003 -27.30078125 26.9453125 C-27.34074219 26.11128906 -27.38070313 25.27726562 -27.421875 24.41796875 C-26.58618909 20.62524039 -24.88932345 19.26888233 -21.86328125 16.8828125 C-19.16010914 15.6640193 -16.40788828 14.84905928 -13.55078125 14.0703125 C-12.81021484 13.85439453 -12.06964844 13.63847656 -11.30664062 13.41601562 C-9.49633568 12.89044322 -7.68032766 12.38458207 -5.86328125 11.8828125 C-5.86328125 10.8928125 -5.86328125 9.9028125 -5.86328125 8.8828125 C-11.39146538 7.66661199 -13.99332919 8.06906242 -18.86328125 10.8828125 C-21.23828125 11.5703125 -21.23828125 11.5703125 -22.86328125 11.8828125 C-25.48714612 8.82163682 -25.86328125 8.15108123 -25.86328125 3.8828125 C-19.29595625 -1.84254776 -7.90014141 -4.73677241 0 0 Z M-11.48828125 21.3828125 C-12.71417969 21.80046875 -12.71417969 21.80046875 -13.96484375 22.2265625 C-14.59132813 22.443125 -15.2178125 22.6596875 -15.86328125 22.8828125 C-16.63284261 25.22815201 -16.63284261 25.22815201 -16.86328125 27.8828125 C-15.84357807 29.81936198 -15.84357807 29.81936198 -13.86328125 30.8828125 C-10.5956387 31.46931244 -9.3133318 31.18690071 -6.55078125 29.3203125 C-4.29929348 26.0681635 -4.56573741 23.75088245 -4.86328125 19.8828125 C-7.32948414 19.8828125 -9.15672251 20.58342093 -11.48828125 21.3828125 Z " fill="#2963E2" transform="translate(390.86328125,20.1171875)"/>
<path d="M0 0 C3.63 0 7.26 0 11 0 C12.12616242 3.04124077 13.25096637 6.08297249 14.375 9.125 C14.69210938 9.9809375 15.00921875 10.836875 15.3359375 11.71875 C16.96262318 16.12435706 18.54979614 20.53220024 20 25 C21.76683291 22.34975063 22.67827231 20.36910466 23.69140625 17.40234375 C23.99626953 16.51869141 24.30113281 15.63503906 24.61523438 14.72460938 C24.92783203 13.80486328 25.24042969 12.88511719 25.5625 11.9375 C26.18767839 10.11289585 26.81392871 8.28865851 27.44140625 6.46484375 C27.71670166 5.656521 27.99199707 4.84819824 28.27563477 4.01538086 C29 2 29 2 30 0 C33.3 0 36.6 0 40 0 C39.43060084 5.21310007 38.1752775 9.78739782 36.27734375 14.68359375 C36.01240616 15.38396255 35.74746857 16.08433136 35.47450256 16.80592346 C34.63555237 19.01907299 33.78672031 21.22827373 32.9375 23.4375 C32.36327213 24.94701466 31.78969794 26.45677816 31.21679688 27.96679688 C29.8187371 31.6474506 28.41180852 35.32459922 27 39 C22.71 39 18.42 39 14 39 C10.00097927 29.18514455 6.03705423 19.36756004 2.5 9.375 C2.11787354 8.30197632 2.11787354 8.30197632 1.72802734 7.20727539 C0 2.25630146 0 2.25630146 0 0 Z " fill="#2763E5" transform="translate(126,19)"/>
<path d="M0 0 C0.89203125 0.01804688 1.7840625 0.03609375 2.703125 0.0546875 C3.71632813 0.08949219 3.71632813 0.08949219 4.75 0.125 C4.75 2.765 4.75 5.405 4.75 8.125 C3.945625 8.24875 3.14125 8.3725 2.3125 8.5 C1.466875 8.70625 0.62125 8.9125 -0.25 9.125 C-2.04134798 12.70769597 -1.53842686 17.20574874 -1.59179688 21.18359375 C-1.73602711 24.82624579 -1.95695551 26.76527809 -4.29296875 29.6328125 C-4.93878906 30.12523438 -5.58460937 30.61765625 -6.25 31.125 C-5.60546875 31.59421875 -4.9609375 32.0634375 -4.296875 32.546875 C-1.31409117 36.30381647 -1.58030605 39.70264827 -1.5 44.375 C-1.47035156 45.21546875 -1.44070312 46.0559375 -1.41015625 46.921875 C-1.33968364 48.9890715 -1.29255061 51.05704033 -1.25 53.125 C0.73 53.125 2.71 53.125 4.75 53.125 C4.75 56.095 4.75 59.065 4.75 62.125 C-0.81663461 62.41292938 -4.4672507 62.35057511 -9.25 59.125 C-12.82676949 54.65403813 -12.78593129 50.29928719 -12.9375 44.8125 C-12.98874023 43.55856445 -12.98874023 43.55856445 -13.04101562 42.27929688 C-13.12305461 40.22832228 -13.1882151 38.17668462 -13.25 36.125 C-14.9 35.795 -16.55 35.465 -18.25 35.125 C-18.25 32.485 -18.25 29.845 -18.25 27.125 C-16.6 26.465 -14.95 25.805 -13.25 25.125 C-13.21261719 23.96742187 -13.17523437 22.80984375 -13.13671875 21.6171875 C-13.07102575 20.07809439 -13.00457958 18.5390333 -12.9375 17 C-12.90366211 15.85917969 -12.90366211 15.85917969 -12.86914062 14.6953125 C-12.63984008 9.85915551 -12.00003201 6.26578047 -9.25 2.125 C-6.24912793 -0.08152358 -3.65524498 -0.09619066 0 0 Z " fill="#3563CD" transform="translate(23.25,3.875)"/>
<path d="M0 0 C0 2.97 0 5.94 0 9 C3.63 9 7.26 9 11 9 C11 11.97 11 14.94 11 18 C7.37 18 3.74 18 0 18 C0.33 24.93 0.66 31.86 1 39 C5.455 38.505 5.455 38.505 10 38 C11.49821059 41.37097383 12 43.20442119 12 47 C7.22448465 49.79132235 2.38801056 49.78640038 -3 49 C-6.17454605 47.34505254 -8.37675639 45.24648722 -10 42 C-10.36149737 38.90812018 -10.46785285 35.79577824 -10.625 32.6875 C-10.6765625 31.83220703 -10.728125 30.97691406 -10.78125 30.09570312 C-11.00270824 25.89125337 -11.13426373 22.10535751 -10 18 C-11.98 18 -13.96 18 -16 18 C-16 15.03 -16 12.06 -16 9 C-14.02 9 -12.04 9 -10 9 C-10 6.69 -10 4.38 -10 2 C-3.375 0 -3.375 0 0 0 Z " fill="#3165CF" transform="translate(283,10)"/>
<path d="M0 0 C1.58294782 -0.05437607 3.16644256 -0.09296271 4.75 -0.125 C5.63171875 -0.14820313 6.5134375 -0.17140625 7.421875 -0.1953125 C10.28065787 0.02126196 11.68946258 0.30107542 14 2 C17.21525739 6.84128001 17.52066749 11.25036098 17.6875 16.875 C17.73874023 18.050625 17.73874023 18.050625 17.79101562 19.25 C17.87280412 21.16618748 17.9380946 23.08306715 18 25 C19.65 25.66 21.3 26.32 23 27 C23 29.64 23 32.28 23 35 C20.525 35.495 20.525 35.495 18 36 C17.96261719 37.15757813 17.92523438 38.31515625 17.88671875 39.5078125 C17.82102575 41.04690561 17.75457958 42.5859667 17.6875 44.125 C17.66494141 44.88554688 17.64238281 45.64609375 17.61914062 46.4296875 C17.38887614 51.28617492 16.66793677 54.79286894 14 59 C9.28593511 62.28888248 5.53479783 62.28628265 0 62 C0 59.03 0 56.06 0 53 C1.98 53 3.96 53 6 53 C6.04898437 51.73542969 6.09796875 50.47085938 6.1484375 49.16796875 C6.2234738 47.50779053 6.29902127 45.84763536 6.375 44.1875 C6.4059375 43.35412109 6.436875 42.52074219 6.46875 41.66210938 C6.52675781 40.45844727 6.52675781 40.45844727 6.5859375 39.23046875 C6.63306885 38.12288208 6.63306885 38.12288208 6.68115234 36.99291992 C7 35 7 35 9 32 C9.66 32 10.32 32 11 32 C10.35417969 31.34386719 9.70835937 30.68773438 9.04296875 30.01171875 C6.51183378 26.28035151 6.37171606 23.17475007 6.3125 18.8125 C6.37803593 13.75154741 6.37803593 13.75154741 5 9 C2.47266765 8.34444881 2.47266765 8.34444881 0 8 C0 5.36 0 2.72 0 0 Z " fill="#2A62DE" transform="translate(472,4)"/>
<path d="M0 0 C3.3 0 6.6 0 10 0 C10.33 0.99 10.66 1.98 11 3 C11.474375 2.505 11.94875 2.01 12.4375 1.5 C16.20358351 -0.70453669 19.73459379 -0.24608113 24 0 C25.27351308 2.54702616 24.80191925 3.4282945 24.0625 6.125 C23.86785156 6.84945313 23.67320312 7.57390625 23.47265625 8.3203125 C23.31667969 8.87460937 23.16070312 9.42890625 23 10 C22.38511719 10.00257812 21.77023437 10.00515625 21.13671875 10.0078125 C19.92435547 10.06582031 19.92435547 10.06582031 18.6875 10.125 C17.88699219 10.14820313 17.08648437 10.17140625 16.26171875 10.1953125 C13.78007848 10.84281889 13.78007848 10.84281889 12.25 13.34375 C10.53301178 18.36594054 10.43161318 23.09998794 10.3125 28.375 C10.27833984 29.39722656 10.24417969 30.41945313 10.20898438 31.47265625 C10.1269228 33.9813959 10.06177446 36.49067885 10 39 C6.7 39 3.4 39 0 39 C0 26.13 0 13.26 0 0 Z " fill="#2963E0" transform="translate(407,19)"/>
<path d="M0 0 C4.269375 -0.0825 8.53875 -0.165 12.9375 -0.25 C14.26515381 -0.28641602 15.59280762 -0.32283203 16.96069336 -0.36035156 C24.93541169 -0.43454055 31.6203855 0.22677577 37.83911133 5.58447266 C43.21430863 10.97590406 45.09393154 18.1679585 45.3125 25.625 C45.16596654 29.95159313 44.20645793 33.85280086 43 38 C42.67 38 42.34 38 42 38 C42.00523682 37.39003174 42.01047363 36.78006348 42.01586914 36.15161133 C42.03673335 33.37191815 42.04969013 30.59224149 42.0625 27.8125 C42.07506836 26.37293945 42.07506836 26.37293945 42.08789062 24.90429688 C42.09111328 23.97294922 42.09433594 23.04160156 42.09765625 22.08203125 C42.10289307 21.22843018 42.10812988 20.3748291 42.11352539 19.49536133 C41.99579323 16.90753253 41.57107044 14.52338047 41 12 C40.01 12 39.02 12 38 12 C37.67 12.66 37.34 13.32 37 14 C36.34 13.67 35.68 13.34 35 13 C35.0314209 13.59949463 35.0628418 14.19898926 35.09521484 14.81665039 C35.22086914 17.56487426 35.29825562 20.31249304 35.375 23.0625 C35.42527344 24.00544922 35.47554687 24.94839844 35.52734375 25.91992188 C35.62986299 30.82375867 35.47466075 34.11766359 32.2890625 37.99609375 C28.57271873 41.64205016 25.77846179 43.85326223 20.44921875 44.29296875 C19.20785156 44.25816406 17.96648438 44.22335938 16.6875 44.1875 C15.43324219 44.16042969 14.17898437 44.13335937 12.88671875 44.10546875 C11.93410156 44.07066406 10.98148438 44.03585938 10 44 C8.49923573 40.99847145 8.85778408 37.9117999 8.8671875 34.62109375 C8.86623077 33.89382584 8.86527405 33.16655792 8.86428833 32.41725159 C8.86360765 30.87981072 8.86545415 29.34236699 8.86962891 27.80493164 C8.87498649 25.443457 8.86967623 23.08217189 8.86328125 20.72070312 C8.8639419 19.22916624 8.86522279 17.73762948 8.8671875 16.24609375 C8.86516327 15.53569443 8.86313904 14.8252951 8.86105347 14.09336853 C8.88504286 9.11495714 8.88504286 9.11495714 10 8 C12.53049402 7.92686433 15.03304837 7.90752473 17.5625 7.9375 C18.27341797 7.94201172 18.98433594 7.94652344 19.71679688 7.95117188 C21.47790013 7.96299136 23.23896036 7.98092737 25 8 C25.33 7.01 25.66 6.02 26 5 C26.33 5.66 26.66 6.32 27 7 C27.99 7.33 28.98 7.66 30 8 C29.5359375 7.071875 29.5359375 7.071875 29.0625 6.125 C28.375 4.75 27.6875 3.375 27 2 C18.42 2 9.84 2 1 2 C1 17.84 1 33.68 1 50 C9.91 50 18.82 50 28 50 C28 50.33 28 50.66 28 51 C18.76 51 9.52 51 0 51 C0 34.17 0 17.34 0 0 Z M11 9 C11 19.89 11 30.78 11 42 C21.17770141 42.73317895 21.17770141 42.73317895 29 39 C32.66399888 34.43347198 33.54736665 31.32609808 33.5 25.5 C33.5103125 24.2315625 33.520625 22.963125 33.53125 21.65625 C32.91773716 17.43383811 31.67908211 15.28466125 29 12 C22.61333543 8.0897972 19.24669723 9 11 9 Z " fill="#3462CB" transform="translate(36,7)"/>
<path d="M0 0 C2.31 0 4.62 0 7 0 C7.01458252 0.72590332 7.02916504 1.45180664 7.04418945 2.19970703 C7.11894859 5.50865732 7.2155179 8.81662952 7.3125 12.125 C7.33505859 13.26710938 7.35761719 14.40921875 7.38085938 15.5859375 C7.63477723 23.74908362 7.63477723 23.74908362 11 31 C10.01 32.485 10.01 32.485 9 34 C8.01 34 7.02 34 6 34 C6.26103516 34.76570313 6.26103516 34.76570313 6.52734375 35.546875 C7.16767376 38.87024065 6.84312439 41.88250735 6.5625 45.25 C6.46066406 46.51328125 6.35882813 47.7765625 6.25390625 49.078125 C6.17011719 50.04234375 6.08632813 51.0065625 6 52 C4.02 52 2.04 52 0 52 C0 34.84 0 17.68 0 0 Z " fill="#2663E8" transform="translate(439,5)"/>
<path d="M0 0 C1.65 0 3.3 0 5 0 C7 5.75 7 5.75 7 8 C9.97 8.495 9.97 8.495 13 9 C13 10.32 13 11.64 13 13 C10.69 13.33 8.38 13.66 6 14 C6.02320313 15.15757813 6.04640625 16.31515625 6.0703125 17.5078125 C6.08908148 19.04686851 6.10728046 20.58593155 6.125 22.125 C6.15013672 23.26582031 6.15013672 23.26582031 6.17578125 24.4296875 C6.21546246 29.03270731 5.75907577 32.66464004 4 37 C3.01 37 2.02 37 1 37 C0.87625 36.195625 0.7525 35.39125 0.625 34.5625 C0.41875 33.716875 0.2125 32.87125 0 32 C-0.66 31.67 -1.32 31.34 -2 31 C-2.44921875 28.671875 -2.44921875 28.671875 -2.6875 25.75 C-2.77386719 24.79609375 -2.86023438 23.8421875 -2.94921875 22.859375 C-2.99883248 20.06574054 -2.65694498 17.70681091 -2 15 C-3.98 15 -5.96 15 -8 15 C-8 12.03 -8 9.06 -8 6 C-5.36 6 -2.72 6 0 6 C0 4.02 0 2.04 0 0 Z " fill="#2563E9" transform="translate(275,13)"/>
<path d="M0 0 C1.99954746 -0.04254356 4.00041636 -0.04080783 6 0 C7 1 7 1 7.12025452 2.90455627 C7.1169236 4.15365028 7.1169236 4.15365028 7.11352539 5.42797852 C7.11344986 6.36887833 7.11337433 7.30977814 7.11329651 8.27919006 C7.10813522 9.30209641 7.10297394 10.32500275 7.09765625 11.37890625 C7.0962413 12.42070541 7.09482635 13.46250458 7.09336853 14.53587341 C7.0877508 17.87811094 7.0751953 21.22028257 7.0625 24.5625 C7.05748728 26.82226466 7.05292398 29.08203037 7.04882812 31.34179688 C7.03777561 36.89455391 7.02102024 42.44727225 7 48 C5.02 48 3.04 48 1 48 C1.00785522 46.61494263 1.00785522 46.61494263 1.01586914 45.2019043 C1.03291585 41.77465186 1.0454525 38.3474445 1.05493164 34.92016602 C1.05995903 33.43708587 1.06678185 31.95401067 1.07543945 30.47094727 C1.08757482 28.33869199 1.09324425 26.20650227 1.09765625 24.07421875 C1.10289307 22.79119873 1.10812988 21.50817871 1.11352539 20.1862793 C1.14927176 16.9774026 1.14927176 16.9774026 0 14 C-0.99 14 -1.98 14 -3 14 C-3.33 13.01 -3.66 12.02 -4 11 C-3.01 10.67 -2.02 10.34 -1 10 C-1.020625 8.72125 -1.04125 7.4425 -1.0625 6.125 C-1.125 2.25 -1.125 2.25 0 0 Z " fill="#2562EB" transform="translate(346,9)"/>
<path d="M0 0 C4.62 0 9.24 0 14 0 C14 16.83 14 33.66 14 51 C10.7 51 7.4 51 4 51 C4 40.77 4 30.54 4 20 C4.33 20 4.66 20 5 20 C5 29.9 5 39.8 5 50 C7.31 50 9.62 50 12 50 C11.67 34.49 11.34 18.98 11 3 C8.03 2.505 8.03 2.505 5 2 C5 5.3 5 8.6 5 12 C4.01 12.495 4.01 12.495 3 13 C0.375 12.0625 0.375 12.0625 -2 11 C-2.10957031 11.65226562 -2.21914063 12.30453125 -2.33203125 12.9765625 C-3.27149317 18.15505992 -4.42239803 22.36031645 -7 27 C-8.03870101 29.31819179 -9.01622977 31.65768993 -10 34 C-11 32 -11 32 -10.10375977 28.83544922 C-9.64071062 27.48917651 -9.16933343 26.14575064 -8.69140625 24.8046875 C-8.44583481 24.09724396 -8.20026337 23.38980042 -7.94725037 22.66091919 C-7.15936446 20.39642095 -6.36107404 18.13574849 -5.5625 15.875 C-5.02730681 14.34268804 -4.49279274 12.81013869 -3.95898438 11.27734375 C-2.64719465 7.51542687 -1.3260607 3.75690894 0 0 Z " fill="#3765CC" transform="translate(341,7)"/>
<path d="M0 0 C2.33944736 0.28730055 4.6739143 0.61936779 7 1 C7 2.32 7 3.64 7 5 C6.236875 4.979375 5.47375 4.95875 4.6875 4.9375 C1.89814214 4.87057159 1.89814214 4.87057159 -1 6 C-1.042721 4.33388095 -1.04063832 2.66617115 -1 1 C-0.67 0.67 -0.34 0.34 0 0 Z M-4 6 C-1 7 -1 7 1 8 C1 14.27 1 20.54 1 27 C0.34 27 -0.32 27 -1 27 C-1.33 28.32 -1.66 29.64 -2 31 C-3.32 31 -4.64 31 -6 31 C-6 31.66 -6 32.32 -6 33 C-8.31 33 -10.62 33 -13 33 C-13 31.02 -13 29.04 -13 27 C-11.02 27 -9.04 27 -7 27 C-5.5320949 22.33940132 -5.62328552 17.42204354 -5.39453125 12.58007812 C-5.10224581 7.10224581 -5.10224581 7.10224581 -4 6 Z " fill="#2662EA" transform="translate(486,32)"/>
<path d="M0 0 C2.9719385 1.12451727 5.33440687 2.22293791 8 4 C6.64844718 8.42326378 4.80109562 10.40412982 1 13 C-5.28062407 15.09354136 -12.61066654 15.07879425 -18.625 12.1875 C-21.42625118 10.64503891 -22.12736711 9.80894933 -24 7 C-22.68 7.33 -21.36 7.66 -20 8 C-20 8.66 -20 9.32 -20 10 C-18.51882199 9.71872579 -17.04006751 9.42466268 -15.5625 9.125 C-14.32693359 8.88136719 -14.32693359 8.88136719 -13.06640625 8.6328125 C-12.38449219 8.42398438 -11.70257813 8.21515625 -11 8 C-10.67 7.34 -10.34 6.68 -10 6 C-11.65 6 -13.3 6 -15 6 C-14.67 5.34 -14.34 4.68 -14 4 C-13.31292969 4.01160156 -12.62585938 4.02320313 -11.91796875 4.03515625 C-11.01691406 4.04417969 -10.11585937 4.05320312 -9.1875 4.0625 C-7.84751953 4.07990234 -7.84751953 4.07990234 -6.48046875 4.09765625 C-3.86586209 4.11009967 -3.86586209 4.11009967 -1 3 C-0.67 2.01 -0.34 1.02 0 0 Z " fill="#3263CF" transform="translate(115,45)"/>
<path d="M0 0 C1.6640625 1.375 1.6640625 1.375 4.1015625 3.8125 C3.7715625 4.4725 3.4415625 5.1325 3.1015625 5.8125 C2.5446875 5.173125 1.9878125 4.53375 1.4140625 3.875 C-1.11910311 1.61569013 -2.58185174 1.18100953 -5.8984375 0.8125 C-5.55398869 3.28516765 -5.55398869 3.28516765 -4.8984375 5.8125 C-4.2384375 6.1425 -3.5784375 6.4725 -2.8984375 6.8125 C-3.2284375 7.1425 -3.5584375 7.4725 -3.8984375 7.8125 C-3.93907582 9.47867115 -3.9411585 11.14638095 -3.8984375 12.8125 C-4.5584375 12.4825 -5.2184375 12.1525 -5.8984375 11.8125 C-5.8984375 10.8225 -5.8984375 9.8325 -5.8984375 8.8125 C-11.42662163 7.59629949 -14.02848544 7.99874992 -18.8984375 10.8125 C-21.2734375 11.5 -21.2734375 11.5 -22.8984375 11.8125 C-25.52230237 8.75132432 -25.8984375 8.08076873 -25.8984375 3.8125 C-19.35638998 -1.89082348 -7.81910789 -4.89096461 0 0 Z " fill="#2F61D7" transform="translate(390.8984375,20.1875)"/>
<path d="M0 0 C3.63 0 7.26 0 11 0 C12.15251942 3.03928099 13.297171 6.08114725 14.4375 9.125 C14.76298828 9.9809375 15.08847656 10.836875 15.42382812 11.71875 C17.07327814 16.13995622 18.45067377 20.28043661 19 25 C16.49701566 22.06171403 15.53069061 19.82097239 15 16 C13.35 16.66 11.7 17.32 10 18 C9 15 9 15 10.4375 11.8125 C10.953125 10.884375 11.46875 9.95625 12 9 C9.83844966 10.6916481 9.01293672 11.96463964 8.0625 14.5625 C7.98381265 18.89030436 9.35507276 21.7630155 11.1875 25.6328125 C12.10945482 28.3188924 11.78806825 29.35005066 11 32 C9.42931142 27.76567272 7.86284151 23.52981835 6.30029297 19.29248047 C5.76792764 17.85064416 5.23440373 16.40923508 4.69970703 14.96826172 C3.93218234 12.8992202 3.1688116 10.82868749 2.40625 8.7578125 C2.16563843 8.11192169 1.92502686 7.46603088 1.67712402 6.80056763 C0 2.22774341 0 2.22774341 0 0 Z " fill="#2C63D7" transform="translate(126,19)"/>
<path d="M0 0 C0.66 1.32 1.32 2.64 2 4 C1.67 4.33 1.34 4.66 1 5 C0.84344973 6.48638992 0.74933057 7.97949127 0.68359375 9.47265625 C0.64169922 10.37177734 0.59980469 11.27089844 0.55664062 12.19726562 C0.49766602 13.61555664 0.49766602 13.61555664 0.4375 15.0625 C0.39431641 16.01189453 0.35113281 16.96128906 0.30664062 17.93945312 C0.20020724 20.29281353 0.09818992 22.64628354 0 25 C-1.32 25 -2.64 25 -4 25 C-4.144375 25.61875 -4.28875 26.2375 -4.4375 26.875 C-5 29 -5 29 -6 31 C-7.98 31 -9.96 31 -12 31 C-12 29.02 -12 27.04 -12 25 C-10.68 25 -9.36 25 -8 25 C-7.2204542 22.19252545 -6.8289851 19.57970192 -6.68359375 16.671875 C-6.64169922 15.87265625 -6.59980469 15.0734375 -6.55664062 14.25 C-6.51732422 13.425 -6.47800781 12.6 -6.4375 11.75 C-6.37272461 10.48929688 -6.37272461 10.48929688 -6.30664062 9.203125 C-6.20091457 7.13559329 -6.09998705 5.06781719 -6 3 C-4.02 2.01 -2.04 1.02 0 0 Z " fill="#2563E9" transform="translate(19,7)"/>
<path d="M0 0 C3.3 0 6.6 0 10 0 C9.4374358 6.43823468 7.30475962 11.9559787 4.9375 17.9375 C4.37192383 19.3925293 4.37192383 19.3925293 3.79492188 20.87695312 C2.86987534 23.25397143 1.93810818 25.62811317 1 28 C-0.23701372 24.28895884 0.57873021 23.51137242 2 20 C2.16798262 17.29113059 2.16798262 17.29113059 2 15 C-2.26826873 15 -2.93882432 15.37613513 -6 18 C-4.41039668 11.76559832 -2.72399099 5.83712355 0 0 Z " fill="#2B62DB" transform="translate(156,19)"/>
<path d="M0 0 C0.66 0.66 1.32 1.32 2 2 C0.88625 2.12375 -0.2275 2.2475 -1.375 2.375 C-5.03103677 2.6465813 -5.03103677 2.6465813 -7 5 C-4.1575146 6.57273568 -4.1575146 6.57273568 -1 7 C-1.33 8.32 -1.66 9.64 -2 11 C-2.99 10.34 -3.98 9.68 -5 9 C-8.52295483 8.62521757 -10.34881863 8.58872755 -13.375 10.5 C-13.91125 10.995 -14.4475 11.49 -15 12 C-14.67 9.69 -14.34 7.38 -14 5 C-14.99 4.67 -15.98 4.34 -17 4 C-19.87561839 6.59733274 -21.24269096 8.21345482 -22 12 C-22.66 12.66 -23.32 13.32 -24 14 C-24.28273257 16.9237186 -24.28273257 16.9237186 -24.1875 20.25 C-24.18105469 21.36890625 -24.17460938 22.4878125 -24.16796875 23.640625 C-24.00819818 26.83603635 -23.59481353 29.85938455 -23 33 C-26.55243897 29.44756103 -26.91989633 24.99328554 -27.3125 20.125 C-27.08907078 13.72002901 -25.58101114 8.03706183 -20.8125 3.5625 C-14.57664374 -1.14380661 -7.51735157 -1.93392447 0 0 Z " fill="#2960D6" transform="translate(114,19)"/>
<path d="M0 0 C2.63654868 3.95482303 3.76400267 8.22520266 5.14453125 12.7265625 C5.70982143 14.50219792 6.34981272 16.25366365 7 18 C7.66 18.33 8.32 18.66 9 19 C8.67 20.32 8.34 21.64 8 23 C7.01 22.34 6.02 21.68 5 21 C5 20.01 5 19.02 5 18 C3.68 18.33 2.36 18.66 1 19 C1 20.98 1 22.96 1 25 C1.99 25.33 2.98 25.66 4 26 C3.67 28.64 3.34 31.28 3 34 C5.31 34 7.62 34 10 34 C10 33.34 10 32.68 10 32 C10.99 31.67 11.98 31.34 13 31 C12.67 32.32 12.34 33.64 12 35 C8.7 35 5.4 35 2 35 C0.56991979 30.92693379 -0.85407095 26.85180574 -2.27246094 22.7746582 C-2.75581792 21.38800757 -3.24083311 20.00193379 -3.72753906 18.61645508 C-4.42689953 16.62470502 -5.12026718 14.63095545 -5.8125 12.63671875 C-6.23144531 11.43748779 -6.65039062 10.23825684 -7.08203125 9.00268555 C-8 6 -8 6 -8 3 C-7.34 3 -6.68 3 -6 3 C-5.67 3.99 -5.34 4.98 -5 6 C-4.01 6.66 -3.02 7.32 -2 8 C-1.3125 11.125 -1.3125 11.125 -1 14 C-0.34 13.34 0.32 12.68 1 12 C1.02168637 9.09324817 1.02168637 9.09324817 0.625 5.875 C0.51414062 4.77929688 0.40328125 3.68359375 0.2890625 2.5546875 C0.19367188 1.71164063 0.09828125 0.86859375 0 0 Z " fill="#2F64D4" transform="translate(321,23)"/>
<path d="M0 0 C1.32 0.33 2.64 0.66 4 1 C4 2.32 4 3.64 4 5 C4.99 5 5.98 5 7 5 C9.34813403 8.67046207 9.15795226 11.67232662 8.9765625 15.953125 C8.95153656 16.61334656 8.92651062 17.27356812 8.90072632 17.95379639 C8.81885175 20.05307889 8.7221408 22.15137401 8.625 24.25 C8.56672689 25.67704359 8.50942434 27.10412717 8.453125 28.53125 C8.31332364 32.02136694 8.16021403 35.51075374 8 39 C7.67 39 7.34 39 7 39 C6.67 29.1 6.34 19.2 6 9 C3.45736209 15.35659478 0.99399004 21.66780417 -1.25 28.125 C-1.518125 28.89070313 -1.78625 29.65640625 -2.0625 30.4453125 C-2.71030568 32.29618586 -3.35544918 34.14799065 -4 36 C-4.33 36 -4.66 36 -5 36 C-4.67 32.37 -4.34 28.74 -4 25 C-3.34 25 -2.68 25 -2 25 C-1.34 21.7 -0.68 18.4 0 15 C0.66 15 1.32 15 2 15 C1.02727325 13.64664105 0.0260734 12.31337396 -1 11 C-1.33 11 -1.66 11 -2 11 C-1.85892253 9.54119891 -1.71197585 8.08296449 -1.5625 6.625 C-1.48128906 5.81289063 -1.40007812 5.00078125 -1.31640625 4.1640625 C-1 2 -1 2 0 0 Z " fill="#2463E8" transform="translate(339,18)"/>
<path d="M0 0 C0.91007812 0.00902344 1.82015625 0.01804688 2.7578125 0.02734375 C3.45648438 0.03894531 4.15515625 0.05054688 4.875 0.0625 C4.875 2.7025 4.875 5.3425 4.875 8.0625 C4.070625 8.18625 3.26625 8.31 2.4375 8.4375 C1.591875 8.64375 0.74625 8.85 -0.125 9.0625 C-1.95935809 12.73121618 -1.49836838 17.31523709 -1.64257812 21.38476562 C-1.73390568 23.28196625 -1.92213434 25.17396711 -2.125 27.0625 C-2.785 27.3925 -3.445 27.7225 -4.125 28.0625 C-4.125 20.0625 -4.125 12.0625 -4.125 4.0625 C-5.775 4.7225 -7.425 5.3825 -9.125 6.0625 C-7.11119047 0.45260202 -5.85719068 -0.07509219 0 0 Z " fill="#3463CF" transform="translate(23.125,3.9375)"/>
<path d="M0 0 C1.50433594 0.01353516 1.50433594 0.01353516 3.0390625 0.02734375 C3.80992187 0.03894531 4.58078125 0.05054688 5.375 0.0625 C5.375 0.7225 5.375 1.3825 5.375 2.0625 C4.73691406 2.2584375 4.09882813 2.454375 3.44140625 2.65625 C0.84321625 3.59662454 -1.34334353 4.49547555 -3.625 6.0625 C-4.77632402 8.93532756 -4.67769322 10.90090709 -4.625 14.0625 C-4.955 13.4025 -5.285 12.7425 -5.625 12.0625 C-7.935 12.3925 -10.245 12.7225 -12.625 13.0625 C-12.9375 9.875 -12.9375 9.875 -12.625 6.0625 C-8.55651439 1.1374911 -6.22724794 -0.07240986 0 0 Z " fill="#2663E9" transform="translate(377.625,36.9375)"/>
<path d="M0 0 C0.99 0.495 0.99 0.495 2 1 C4.09821215 0.60061233 4.09821215 0.60061233 6 0 C6 0.66 6 1.32 6 2 C6.99 1.67 7.98 1.34 9 1 C9.20413361 6.73842251 9.27141454 11.60539047 7 17 C6.01 17 5.02 17 4 17 C3.87625 16.195625 3.7525 15.39125 3.625 14.5625 C3.315625 13.2940625 3.315625 13.2940625 3 12 C2.34 11.67 1.68 11.34 1 11 C0.5859375 8.49609375 0.5859375 8.49609375 0.375 5.4375 C0.30023438 4.42558594 0.22546875 3.41367187 0.1484375 2.37109375 C0.09945313 1.58863281 0.05046875 0.80617187 0 0 Z " fill="#235DEA" transform="translate(272,33)"/>
<path d="M0 0 C0.33 2.31 0.66 4.62 1 7 C-1.73077876 8.36538938 -3.95560367 8.13231826 -7 8.125 C-8.60875 8.12886719 -8.60875 8.12886719 -10.25 8.1328125 C-13 8 -13 8 -15 7 C-15.625 4.4375 -15.625 4.4375 -16 2 C-14.08404518 1.66259915 -12.16720278 1.33023588 -10.25 1 C-9.18265625 0.814375 -8.1153125 0.62875 -7.015625 0.4375 C-4 0 -4 0 0 0 Z " fill="#2963E2" transform="translate(294,50)"/>
<path d="M0 0 C1.32 0 2.64 0 4 0 C5.59412284 3.18824568 5.10174735 6.62896662 5.0625 10.125 C5.05798828 10.87910156 5.05347656 11.63320313 5.04882812 12.41015625 C5.03703499 14.27347127 5.01909942 16.13674555 5 18 C3.02 18.33 1.04 18.66 -1 19 C-1.02683987 16.02077407 -1.04676037 13.04178705 -1.0625 10.0625 C-1.07087891 9.21236328 -1.07925781 8.36222656 -1.08789062 7.48632812 C-1.09111328 6.67744141 -1.09433594 5.86855469 -1.09765625 5.03515625 C-1.10289307 4.2862915 -1.10812988 3.53742676 -1.11352539 2.76586914 C-1 1 -1 1 0 0 Z " fill="#2463EA" transform="translate(14,38)"/>
<path d="M0 0 C0.33 0 0.66 0 1 0 C1 2.64 1 5.28 1 8 C-0.65 8.33 -2.3 8.66 -4 9 C-4.03738281 10.15757813 -4.07476562 11.31515625 -4.11328125 12.5078125 C-4.17897425 14.04690561 -4.24542042 15.5859667 -4.3125 17.125 C-4.34633789 18.26582031 -4.34633789 18.26582031 -4.38085938 19.4296875 C-4.61096121 24.28274448 -5.31607535 27.8051724 -8 32 C-11 34 -11 34 -14 34 C-14 33.34 -14 32.68 -14 32 C-13.360625 31.896875 -12.72125 31.79375 -12.0625 31.6875 C-11.0415625 31.3471875 -11.0415625 31.3471875 -10 31 C-9.67 30.01 -9.34 29.02 -9 28 C-8.34 28 -7.68 28 -7 28 C-7 21.73 -7 15.46 -7 9 C-7.99 8.67 -8.98 8.34 -10 8 C-8.3125 6.4375 -8.3125 6.4375 -6 5 C-3.25 5.3125 -3.25 5.3125 -1 6 C-0.67 4.02 -0.34 2.04 0 0 Z " fill="#3362C9" transform="translate(494,31)"/>
<path d="M0 0 C0.66 0.33 1.32 0.66 2 1 C1.175 1.886875 0.35 2.77375 -0.5 3.6875 C-2.36682147 5.9245127 -2.96736396 6.79485919 -3.4375 9.75 C-3.18015448 12.19260663 -3.18015448 12.19260663 -1 14 C-1.66 15.98 -2.32 17.96 -3 20 C-3.66 20 -4.32 20 -5 20 C-5 22.97 -5 25.94 -5 29 C-8.19584615 24.20623078 -8.55307452 19.71175139 -8 14 C-6.71048516 7.90780392 -4.77750728 4.00277637 0 0 Z " fill="#2C62D7" transform="translate(232,21)"/>
<path d="M0 0 C3.62801881 1.0589554 5.61200404 3.01044154 8.26171875 5.66015625 C7.93171875 6.32015625 7.60171875 6.98015625 7.26171875 7.66015625 C6.70484375 7.02078125 6.14796875 6.38140625 5.57421875 5.72265625 C3.04105314 3.46334638 1.57830451 3.02866578 -1.73828125 2.66015625 C-1.39383244 5.1328239 -1.39383244 5.1328239 -0.73828125 7.66015625 C-0.07828125 7.99015625 0.58171875 8.32015625 1.26171875 8.66015625 C0.93171875 8.99015625 0.60171875 9.32015625 0.26171875 9.66015625 C0.22108043 11.3263274 0.21899775 12.9940372 0.26171875 14.66015625 C-0.39828125 14.33015625 -1.05828125 14.00015625 -1.73828125 13.66015625 C-1.73828125 12.67015625 -1.73828125 11.68015625 -1.73828125 10.66015625 C-6.05477345 9.89842233 -9.48261578 9.49952021 -13.73828125 10.66015625 C-13.73828125 10.00015625 -13.73828125 9.34015625 -13.73828125 8.66015625 C-12.74828125 8.66015625 -11.75828125 8.66015625 -10.73828125 8.66015625 C-10.73828125 7.67015625 -10.73828125 6.68015625 -10.73828125 5.66015625 C-9.56265625 5.96953125 -9.56265625 5.96953125 -8.36328125 6.28515625 C-7.49703125 6.40890625 -6.63078125 6.53265625 -5.73828125 6.66015625 C-5.07828125 6.00015625 -4.41828125 5.34015625 -3.73828125 4.66015625 C-4.06828125 3.67015625 -4.39828125 2.68015625 -4.73828125 1.66015625 C-6.71828125 1.99015625 -8.69828125 2.32015625 -10.73828125 2.66015625 C-7.45132731 -0.91261977 -4.49259916 -0.64604318 0 0 Z " fill="#3062CD" transform="translate(386.73828125,18.33984375)"/>
<path d="M0 0 C0 1.65 0 3.3 0 5 C-0.99 5.33 -1.98 5.66 -3 6 C-3.04898437 7.10859375 -3.09796875 8.2171875 -3.1484375 9.359375 C-3.22349215 10.82294065 -3.29903881 12.28648112 -3.375 13.75 C-3.42140625 14.84441406 -3.42140625 14.84441406 -3.46875 15.9609375 C-3.6748494 19.73942656 -3.91512843 22.77946668 -6 26 C-7.98 26 -9.96 26 -12 26 C-12 27.98 -12 29.96 -12 32 C-9.69 32 -7.38 32 -5 32 C-5 32.33 -5 32.66 -5 33 C-7.64 33 -10.28 33 -13 33 C-13 30.03 -13 27.06 -13 24 C-11.02 24 -9.04 24 -7 24 C-6.98582031 22.77023438 -6.97164063 21.54046875 -6.95703125 20.2734375 C-6.9101103 18.64058842 -6.86186303 17.00777708 -6.8125 15.375 C-6.80669922 14.56675781 -6.80089844 13.75851563 -6.79492188 12.92578125 C-6.65300999 9.04685638 -5.59421351 0 0 0 Z " fill="#3563C9" transform="translate(485,33)"/>
<path d="M0 0 C-0.99 1.485 -0.99 1.485 -2 3 C-1.67 3.66 -1.34 4.32 -1 5 C-6.445 6.485 -6.445 6.485 -12 8 C-12 10.31 -12 12.62 -12 15 C-12.66 15 -13.32 15 -14 15 C-14 12.69 -14 10.38 -14 8 C-7.375 4 -7.375 4 -4 4 C-6.33937907 2.83031047 -7.77369368 2.86635779 -10.375 2.875 C-11.53128906 2.87113281 -11.53128906 2.87113281 -12.7109375 2.8671875 C-14.9328189 2.99610212 -16.86618508 3.38616283 -19 4 C-16.45212328 0.87025524 -13.91809367 0.15497283 -10.0625 -0.8125 C-9.02222656 -1.08707031 -7.98195313 -1.36164062 -6.91015625 -1.64453125 C-3.77266081 -2.02776895 -2.59061916 -1.71667535 0 0 Z " fill="#3365CE" transform="translate(387,35)"/>
<path d="M0 0 C1.65 0 3.3 0 5 0 C5 0.99 5 1.98 5 3 C6.32 3 7.64 3 9 3 C9 3.66 9 4.32 9 5 C13.29 5 17.58 5 22 5 C22 4.01 22 3.02 22 2 C24.97 1.34 27.94 0.68 31 0 C27.10856096 4.22499096 24.15244265 6.59475326 18.38671875 7.3359375 C12.13450626 7.42641814 7.11707787 6.83460222 2 3 C1.34 2.01 0.68 1.02 0 0 Z " fill="#3062D3" transform="translate(228,52)"/>
<path d="M0 0 C1 2 1 2 0.37915039 4.15478516 C0.03875732 5.02409668 -0.30163574 5.8934082 -0.65234375 6.7890625 C-1.01650391 7.73007812 -1.38066406 8.67109375 -1.75585938 9.640625 C-2.14580078 10.62546875 -2.53574219 11.6103125 -2.9375 12.625 C-3.51661133 14.11386719 -3.51661133 14.11386719 -4.10742188 15.6328125 C-5.06481137 18.09129417 -6.02925759 20.54676682 -7 23 C-8.23701372 19.28895884 -7.42126979 18.51137242 -6 15 C-5.83201738 12.29113059 -5.83201738 12.29113059 -6 10 C-10.3 9.6 -10.3 9.6 -14 13 C-13.01 9.37 -12.02 5.74 -11 2 C-10.34 3.32 -9.68 4.64 -9 6 C-6.68297038 6 -5.17024029 5.85494315 -3 5 C-1.22851628 2.52066803 -1.22851628 2.52066803 0 0 Z " fill="#3562CB" transform="translate(164,24)"/>
<path d="M0 0 C1.22589844 0.01353516 1.22589844 0.01353516 2.4765625 0.02734375 C3.41628906 0.04474609 3.41628906 0.04474609 4.375 0.0625 C5.64851308 2.60952616 5.17691925 3.4907945 4.4375 6.1875 C4.24285156 6.91195313 4.04820312 7.63640625 3.84765625 8.3828125 C3.69167969 8.93710937 3.53570312 9.49140625 3.375 10.0625 C2.76011719 10.09988281 2.14523437 10.13726562 1.51171875 10.17578125 C0.29935547 10.27439453 0.29935547 10.27439453 -0.9375 10.375 C-1.73800781 10.43300781 -2.53851563 10.49101562 -3.36328125 10.55078125 C-5.98772334 11.14456694 -6.93320672 12.02030294 -8.625 14.0625 C-8.955 13.0725 -9.285 12.0825 -9.625 11.0625 C-8.965 11.0625 -8.305 11.0625 -7.625 11.0625 C-7.625 10.0725 -7.625 9.0825 -7.625 8.0625 C-4.325 8.0625 -1.025 8.0625 2.375 8.0625 C2.375 6.0825 2.375 4.1025 2.375 2.0625 C1.116875 2.18625 -0.14125 2.31 -1.4375 2.4375 C-2.14519531 2.50710937 -2.85289062 2.57671875 -3.58203125 2.6484375 C-5.92488142 2.98915391 -5.92488142 2.98915391 -8.625 5.0625 C-6.51899199 0.39919656 -5.01778996 -0.07168271 0 0 Z " fill="#3261C6" transform="translate(426.625,18.9375)"/>
<path d="M0 0 C6.75 -0.125 6.75 -0.125 9 1 C9 1.66 9 2.32 9 3 C10.32 3.33 11.64 3.66 13 4 C13 4.99 13 5.98 13 7 C10.03 7 7.06 7 4 7 C3.67 5.68 3.34 4.36 3 3 C2.34 3 1.68 3 1 3 C0.67 2.01 0.34 1.02 0 0 Z " fill="#2663E7" transform="translate(456,50)"/>
<path d="M0 0 C0 0.66 0 1.32 0 2 C-0.639375 2.61875 -1.27875 3.2375 -1.9375 3.875 C-4.09527904 6.09816628 -4.41463275 7.07316375 -5 10 C-5.66 10.66 -6.32 11.32 -7 12 C-7.28273257 14.9237186 -7.28273257 14.9237186 -7.1875 18.25 C-7.18105469 19.36890625 -7.17460938 20.4878125 -7.16796875 21.640625 C-7.00819818 24.83603635 -6.59481353 27.85938455 -6 31 C-9.55243897 27.44756103 -9.91989633 22.99328554 -10.3125 18.125 C-10.11939266 11.90935745 -8.42932367 6.70821609 -4.4375 1.9375 C-2 0 -2 0 0 0 Z " fill="#3462C6" transform="translate(97,21)"/>
<path d="M0 0 C1.20628008 2.33214148 2.1654738 4.49642139 3 7 C0.77109005 8.11445498 -0.53055106 8.16480286 -3 8.1875 C-4.051875 8.20876953 -4.051875 8.20876953 -5.125 8.23046875 C-7 8 -7 8 -9 6 C-8.4375 4.125 -8.4375 4.125 -7 2 C-3.375 0.75 -3.375 0.75 0 0 Z " fill="#2563E9" transform="translate(113,49)"/>
<path d="M0 0 C1.65 0.33 3.3 0.66 5 1 C5 3.64 5 6.28 5 9 C-2.625 10.25 -2.625 10.25 -6 8 C-5.34 8 -4.68 8 -4 8 C-4 6.68 -4 5.36 -4 4 C-3.01 4.33 -2.02 4.66 -1 5 C-0.67 5.99 -0.34 6.98 0 8 C0.99 6.02 1.98 4.04 3 2 C2.01 2 1.02 2 0 2 C0 1.34 0 0.68 0 0 Z " fill="#3364CD" transform="translate(396,49)"/>
<path d="M0 0 C0.66 1.32 1.32 2.64 2 4 C0.25 5.125 0.25 5.125 -2 6 C-4.25 5.125 -4.25 5.125 -6 4 C-6 4.99 -6 5.98 -6 7 C-6.99 7 -7.98 7 -9 7 C-9.33 5.35 -9.66 3.7 -10 2 C-3.375 0 -3.375 0 0 0 Z " fill="#2562EA" transform="translate(382,20)"/>
<path d="M0 0 C0.66 0 1.32 0 2 0 C0.36231563 9.00726401 -2.86979697 17.42639358 -6 26 C-6.33 26 -6.66 26 -7 26 C-6.67 22.37 -6.34 18.74 -6 15 C-5.34 15 -4.68 15 -4 15 C-3.34 11.7 -2.68 8.4 -2 5 C-1.34 5 -0.68 5 0 5 C0 3.35 0 1.7 0 0 Z " fill="#3864C7" transform="translate(341,28)"/>
<path d="M0 0 C2.31 0 4.62 0 7 0 C7 0.99 7 1.98 7 3 C6.34 3 5.68 3 5 3 C4.67 3.66 4.34 4.32 4 5 C-0.5 8 -0.5 8 -3 8 C-3.33 7.01 -3.66 6.02 -4 5 C-3.01 4.67 -2.02 4.34 -1 4 C-0.26676204 1.98491642 -0.26676204 1.98491642 0 0 Z " fill="#2663E7" transform="translate(459,21)"/>
<path d="M0 0 C2.64 0.33 5.28 0.66 8 1 C8 2.98 8 4.96 8 7 C6.02 7 4.04 7 2 7 C1.34 4.69 0.68 2.38 0 0 Z " fill="#2463E9" transform="translate(19,58)"/>
<path d="M0 0 C2.4375 0.375 2.4375 0.375 5 1 C6.47308269 3.94616538 6.00294692 6.47762594 5.87890625 9.7578125 C5.85529526 10.42086395 5.83168427 11.08391541 5.80735779 11.76705933 C5.73073184 13.88659129 5.64670357 16.00575685 5.5625 18.125 C5.50927819 19.56117994 5.4565378 20.9973778 5.40429688 22.43359375 C5.27511856 25.95595436 5.1392997 29.47802352 5 33 C4.67 33 4.34 33 4 33 C3.67 23.1 3.34 13.2 3 3 C2.01 3.495 2.01 3.495 1 4 C0.67 2.68 0.34 1.36 0 0 Z " fill="#2D63DA" transform="translate(342,24)"/>
<path d="M0 0 C0.99 0.33 1.98 0.66 3 1 C3.06058594 2.10859375 3.12117188 3.2171875 3.18359375 4.359375 C3.26802951 5.8229282 3.35267599 7.28646925 3.4375 8.75 C3.47681641 9.47960938 3.51613281 10.20921875 3.55664062 10.9609375 C3.76147098 14.4272973 4.0852002 17.65333026 5 21 C3.046875 20.07421875 3.046875 20.07421875 1 18 C0.33287457 14.95412663 0.30291257 11.92231602 0.25 8.8125 C0.22035156 7.96751953 0.19070313 7.12253906 0.16015625 6.25195312 C0.0895301 4.16848178 0.04249205 2.08423494 0 0 Z " fill="#3462C7" transform="translate(478,13)"/>
<path d="M0 0 C-0.33 1.65 -0.66 3.3 -1 5 C-5.62 5 -10.24 5 -15 5 C-14.01 4.67 -13.02 4.34 -12 4 C-11.67 3.34 -11.34 2.68 -11 2 C-9.68 2.33 -8.36 2.66 -7 3 C-6.67 2.34 -6.34 1.68 -6 1 C-3.911361 0.32624548 -2.19636905 0 0 0 Z " fill="#235EE6" transform="translate(386,52)"/>
<path d="M0 0 C2.6015625 -0.29296875 2.6015625 -0.29296875 5.625 -0.1875 C7.12933594 -0.14689453 7.12933594 -0.14689453 8.6640625 -0.10546875 C9.43492187 -0.07066406 10.20578125 -0.03585938 11 0 C10.67 1.32 10.34 2.64 10 4 C9.34 3.67 8.68 3.34 8 3 C5.6670134 2.95977609 3.33293334 2.95679753 1 3 C0.67 3.99 0.34 4.98 0 6 C-2.5625 7.1875 -2.5625 7.1875 -5 8 C-3.38731308 5.28775382 -1.75098126 2.62647188 0 0 Z " fill="#3860BF" transform="translate(458,19)"/>
<path d="M0 0 C0.33 0 0.66 0 1 0 C0.6535829 6.04438106 0.08018927 10.66890319 -3 16 C-4.04270151 18.31659023 -5.01614954 20.65749891 -6 23 C-7 21 -7 21 -6.47094727 18.84521484 C-6.02319946 17.54124756 -6.02319946 17.54124756 -5.56640625 16.2109375 C-5.24736328 15.26992188 -4.92832031 14.32890625 -4.59960938 13.359375 C-4.25736328 12.37453125 -3.91511719 11.3896875 -3.5625 10.375 C-3.05493164 8.88613281 -3.05493164 8.88613281 -2.53710938 7.3671875 C-1.69804913 4.90909552 -0.85209309 2.45359843 0 0 Z " fill="#3963C6" transform="translate(337,18)"/>
<path d="M0 0 C1.65 0 3.3 0 5 0 C5 0.99 5 1.98 5 3 C6.32 3 7.64 3 9 3 C9 3.66 9 4.32 9 5 C12.96 5.33 16.92 5.66 21 6 C21 6.33 21 6.66 21 7 C13.87067627 7.47179348 7.90674623 7.42635871 2 3 C1.34 2.01 0.68 1.02 0 0 Z " fill="#335EC2" transform="translate(228,52)"/>
<path d="M0 0 C0.66 0 1.32 0 2 0 C1.05528846 8.1875 1.05528846 8.1875 -1 11 C-3.07421875 11.6015625 -3.07421875 11.6015625 -5 12 C-4.54965877 10.37276701 -4.08944646 8.74826336 -3.625 7.125 C-3.36976563 6.22007813 -3.11453125 5.31515625 -2.8515625 4.3828125 C-2 2 -2 2 0 0 Z " fill="#2B65D8" transform="translate(151,36)"/>
<path d="M0 0 C3.50020422 0.3000175 4.94904191 0.95733741 7.6875 3.25 C9.86177411 5.83562327 10.99628672 7.80636682 12 11 C10.35 9.68 8.7 8.36 7 7 C6.01 8.485 6.01 8.485 5 10 C4.40267181 7.23735711 4 4.83967231 4 2 C2.68 1.67 1.36 1.34 0 1 C0 0.67 0 0.34 0 0 Z " fill="#305ED0" transform="translate(203,9)"/>
<path d="M0 0 C1.32 0.33 2.64 0.66 4 1 C4 1.66 4 2.32 4 3 C7.3 2.34 10.6 1.68 14 1 C14.33 2.32 14.66 3.64 15 5 C6.22421525 5.76681614 6.22421525 5.76681614 3.22265625 3.88671875 C1.875 2.5 1.875 2.5 0 0 Z " fill="#2D60DB" transform="translate(91,52)"/>
<path d="M0 0 C0.33 0 0.66 0 1 0 C1.33050781 6.83049471 0.62376027 12.63316889 -2 19 C-2.66 19.66 -3.32 20.32 -4 21 C-4 19.35 -4 17.7 -4 16 C-3.34 16 -2.68 16 -2 16 C-2.04125 14.845 -2.0825 13.69 -2.125 12.5 C-2.14087433 8.05518699 -1.21793105 4.26275869 0 0 Z " fill="#3560C6" transform="translate(217,28)"/>
<path d="M0 0 C0 2.64 0 5.28 0 8 C-0.33 8 -0.66 8 -1 8 C-1.33 6.35 -1.66 4.7 -2 3 C-3.65 3 -5.3 3 -7 3 C-7.33 4.98 -7.66 6.96 -8 9 C-8.66 9 -9.32 9 -10 9 C-10 6.69 -10 4.38 -10 2 C-3.375 0 -3.375 0 0 0 Z " fill="#3A63BF" transform="translate(283,10)"/>
<path d="M0 0 C1.32 0.33 2.64 0.66 4 1 C3.01 1.495 3.01 1.495 2 2 C2.33 3.98 2.66 5.96 3 8 C1.02 8 -0.96 8 -3 8 C-2.67 6.02 -2.34 4.04 -2 2 C-1.34 2 -0.68 2 0 2 C0 1.34 0 0.68 0 0 Z " fill="#3166D9" transform="translate(97,40)"/>
<path d="M0 0 C3.3 0 6.6 0 10 0 C10 0.66 10 1.32 10 2 C7.36 2 4.72 2 2 2 C1.67 4.31 1.34 6.62 1 9 C0.67 9 0.34 9 0 9 C0 6.03 0 3.06 0 0 Z " fill="#375FBC" transform="translate(407,19)"/>
<path d="M0 0 C1.65 0 3.3 0 5 0 C5 1.98 5 3.96 5 6 C3.35 6 1.7 6 0 6 C-1.125 2.25 -1.125 2.25 0 0 Z " fill="#2663E5" transform="translate(22,5)"/>
<path d="M0 0 C0.66 0.33 1.32 0.66 2 1 C1.01 2.485 1.01 2.485 0 4 C-0.39387788 6.32387947 -0.73486085 8.65793749 -1 11 C-0.34 11 0.32 11 1 11 C1.66 13.31 2.32 15.62 3 18 C0 17 0 17 -1.171875 15.25390625 C-2.11730993 12.68071777 -2.26651066 10.6741411 -2.25 7.9375 C-2.25515625 7.08027344 -2.2603125 6.22304688 -2.265625 5.33984375 C-2 3 -2 3 0 0 Z " fill="#3665C4" transform="translate(366,39)"/>
<path d="M0 0 C1.22589844 0.01353516 1.22589844 0.01353516 2.4765625 0.02734375 C3.41628906 0.04474609 3.41628906 0.04474609 4.375 0.0625 C5.70832095 2.7291419 5.04602033 4.22930303 4.375 7.0625 C4.045 7.0625 3.715 7.0625 3.375 7.0625 C3.375 5.4125 3.375 3.7625 3.375 2.0625 C1.93663249 2.17708693 0.49929034 2.30459116 -0.9375 2.4375 C-2.13826172 2.54191406 -2.13826172 2.54191406 -3.36328125 2.6484375 C-5.89724441 2.95814426 -5.89724441 2.95814426 -8.625 5.0625 C-6.51899199 0.39919656 -5.01778996 -0.07168271 0 0 Z " fill="#3E64C0" transform="translate(426.625,18.9375)"/>
<path d="M0 0 C3.63 0 7.26 0 11 0 C11 0.66 11 1.32 11 2 C8.36 2 5.72 2 3 2 C3 3.98 3 5.96 3 8 C1 5 1 5 0 0 Z " fill="#325CB7" transform="translate(126,19)"/>
<path d="M0 0 C0.33 0.66 0.66 1.32 1 2 C-1.51407619 6.28324091 -3.12314139 8.64531705 -8 10 C-7.01 8.02 -6.02 6.04 -5 4 C-4.34 4 -3.68 4 -3 4 C-3 3.01 -3 2.02 -3 1 C-2.01 0.67 -1.02 0.34 0 0 Z " fill="#3267CB" transform="translate(77,45)"/>
<path d="M0 0 C-0.33 1.32 -0.66 2.64 -1 4 C-1.99 3.34 -2.98 2.68 -4 2 C-7.52295483 1.62521757 -9.34881863 1.58872755 -12.375 3.5 C-12.91125 3.995 -13.4475 4.49 -14 5 C-13.75 3.125 -13.75 3.125 -13 1 C-8.90499408 -1.92500423 -4.62012876 -1.36892704 0 0 Z " fill="#3161C5" transform="translate(113,26)"/>
<path d="M0 0 C5.80205656 5.64524422 5.80205656 5.64524422 8 9 C8 9.66 8 10.32 8 11 C7.34 11 6.68 11 6 11 C6 10.34 6 9.68 6 9 C4.35 8.67 2.7 8.34 1 8 C1.020625 7.236875 1.04125 6.47375 1.0625 5.6875 C1.12942841 2.89814214 1.12942841 2.89814214 0 0 Z " fill="#3364C8" transform="translate(459,42)"/>
<path d="M0 0 C1.98 0 3.96 0 6 0 C5.67 0.66 5.34 1.32 5 2 C4.01 2 3.02 2 2 2 C2 3.98 2 5.96 2 8 C2.99 8.33 3.98 8.66 5 9 C3.35 9 1.7 9 0 9 C0 6.03 0 3.06 0 0 Z " fill="#3B63BC" transform="translate(267,19)"/>
<path d="M0 0 C2.5654594 2.5654594 2.54046087 4.47686668 3 8 C5.31 8 7.62 8 10 8 C10 7.34 10 6.68 10 6 C10.99 5.67 11.98 5.34 13 5 C12.67 6.32 12.34 7.64 12 9 C8.7 9 5.4 9 2 9 C1.34 6.03 0.68 3.06 0 0 Z " fill="#3563C3" transform="translate(321,49)"/>
<path d="M0 0 C0.66 0.33 1.32 0.66 2 1 C2.8125 4.375 2.8125 4.375 3 8 C1.51171875 9.7265625 1.51171875 9.7265625 0 11 C-0.19406478 9.35492782 -0.38007935 7.70890406 -0.5625 6.0625 C-0.66691406 5.14597656 -0.77132813 4.22945312 -0.87890625 3.28515625 C-0.91886719 2.53105469 -0.95882813 1.77695312 -1 1 C-0.67 0.67 -0.34 0.34 0 0 Z " fill="#2A5EE1" transform="translate(259,40)"/>
<path d="M0 0 C3 1 3 1 4.75 3.8125 C5.98589446 6.96403086 6.28222189 7.96929372 5 11 C4.67 9.35 4.34 7.7 4 6 C2.35 6.33 0.7 6.66 -1 7 C-1 6.01 -1 5.02 -1 4 C-0.34 3.67 0.32 3.34 1 3 C0.67 2.01 0.34 1.02 0 0 Z " fill="#3364D1" transform="translate(117,22)"/>
<path d="M0 0 C0.99 0 1.98 0 3 0 C2.52797514 4.24822374 0.03344482 6.19989709 -3 9 C-3.33 7.02 -3.66 5.04 -4 3 C-2.68 2.34 -1.36 1.68 0 1 C0 0.67 0 0.34 0 0 Z " fill="#3261CF" transform="translate(463,23)"/>
<path d="M0 0 C0.99 0.33 1.98 0.66 3 1 C3.33 2.98 3.66 4.96 4 7 C3.67 6.34 3.34 5.68 3 5 C2.34 5 1.68 5 1 5 C0.67 5.66 0.34 6.32 0 7 C-0.66 5.35 -1.32 3.7 -2 2 C-1.34 1.34 -0.68 0.68 0 0 Z " fill="#2763F0" transform="translate(323,40)"/>
<path d="M0 0 C0.33 0 0.66 0 1 0 C1 1.98 1 3.96 1 6 C1.66 6 2.32 6 3 6 C3 8.97 3 11.94 3 15 C-0.34944548 9.97583178 -0.09834146 5.90048743 0 0 Z " fill="#355FC6" transform="translate(224,35)"/>
<path d="M0 0 C2.45823172 3.68734758 3.01242616 6.69699971 4 11 C3.34 10.67 2.68 10.34 2 10 C2 9.01 2 8.02 2 7 C1.360625 6.87625 0.72125 6.7525 0.0625 6.625 C-0.618125 6.41875 -1.29875 6.2125 -2 6 C-2.33 5.34 -2.66 4.68 -3 4 C-2.01 4 -1.02 4 0 4 C0 2.68 0 1.36 0 0 Z " fill="#3463CD" transform="translate(317,11)"/>
<path d="M0 0 C0.99 0 1.98 0 3 0 C1.74874616 3.75376152 0.4347596 4.24073289 -3 6 C-3.66 6 -4.32 6 -5 6 C-5 5.01 -5 4.02 -5 3 C-4.360625 2.87625 -3.72125 2.7525 -3.0625 2.625 C-2.0415625 2.315625 -2.0415625 2.315625 -1 2 C-0.67 1.34 -0.34 0.68 0 0 Z " fill="#3563CA" transform="translate(209,50)"/>
<path d="M0 0 C0.33 0 0.66 0 1 0 C1 2.64 1 5.28 1 8 C-0.65 8 -2.3 8 -4 8 C-4 7.34 -4 6.68 -4 6 C-3.01 6 -2.02 6 -1 6 C-0.67 4.02 -0.34 2.04 0 0 Z " fill="#3C63C2" transform="translate(494,31)"/>
<path d="M0 0 C0.66 0.99 1.32 1.98 2 3 C1.125 5.6875 1.125 5.6875 0 8 C-0.99 8 -1.98 8 -3 8 C-1.125 2.25 -1.125 2.25 0 0 Z " fill="#2E63D1" transform="translate(204,42)"/>
<path d="M0 0 C1.65 0 3.3 0 5 0 C5 0.99 5 1.98 5 3 C3.35 3.33 1.7 3.66 0 4 C-0.33 3.34 -0.66 2.68 -1 2 C-0.67 1.34 -0.34 0.68 0 0 Z " fill="#2068E0" transform="translate(103,38)"/>
<path d="M0 0 C2.31 0.66 4.62 1.32 7 2 C6.34 3.65 5.68 5.3 5 7 C1.125 2.25 1.125 2.25 0 0 Z " fill="#3361CC" transform="translate(201,18)"/>
<path d="M0 0 C2.31 0 4.62 0 7 0 C7.33 1.65 7.66 3.3 8 5 C6.68 4.34 5.36 3.68 4 3 C4 2.34 4 1.68 4 1 C2.68 0.67 1.36 0.34 0 0 Z " fill="#2F61D5" transform="translate(131,21)"/>
<path d="M0 0 C0.53625 0.226875 1.0725 0.45375 1.625 0.6875 C-3.79038462 3.76442308 -3.79038462 3.76442308 -6.75 3.375 C-7.554375 3.0346875 -7.554375 3.0346875 -8.375 2.6875 C-2.95961538 -0.38942308 -2.95961538 -0.38942308 0 0 Z " fill="#3663BE" transform="translate(376.375,19.3125)"/>
</svg>
